<svg width="46" height="46" viewBox="0 0 46 46" fill="none" xmlns="http://www.w3.org/2000/svg">
<g clip-path="url(#clip0_17_73)">
<g filter="url(#filter0_d_17_73)">
<path d="M23 21.125C25.0711 21.125 26.75 19.4461 26.75 17.375C26.75 15.3039 25.0711 13.625 23 13.625C20.929 13.625 19.25 15.3039 19.25 17.375C19.25 19.4461 20.929 21.125 23 21.125Z" stroke="white" stroke-width="2.8125" shape-rendering="crispEdges"/>
</g>
<g filter="url(#filter1_d_17_73)">
<path d="M30.5 28.625C30.5 30.6961 30.5 32.375 23 32.375C15.5 32.375 15.5 30.6961 15.5 28.625C15.5 26.5539 18.8578 24.875 23 24.875C27.142 24.875 30.5 26.5539 30.5 28.625Z" stroke="white" stroke-width="2.8125" shape-rendering="crispEdges"/>
</g>
<g filter="url(#filter2_d_17_73)">
<path d="M6.125 20.0313C6.125 14.0358 6.125 11.038 6.83285 10.0295C7.54068 9.02101 10.3593 8.05617 15.9967 6.12648L17.0707 5.75885C20.0094 4.75295 21.4786 4.25 23 4.25C24.5214 4.25 25.9906 4.75295 28.9293 5.75885L30.0033 6.12648C35.6407 8.05617 38.4594 9.02101 39.1672 10.0295C39.875 11.038 39.875 14.0358 39.875 20.0313C39.875 20.9367 39.875 21.9189 39.875 22.9839C39.875 27.6806 38.306 31.3032 36.125 34.0702M6.48658 26.75C8.09424 34.8095 14.7058 38.9617 19.0598 40.8637C20.4125 41.4545 21.0888 41.75 23 41.75C24.9112 41.75 25.5875 41.4545 26.9401 40.8637C28.0243 40.3901 29.2483 39.7771 30.5 38.999" stroke="white" stroke-width="2.8125" stroke-linecap="round" shape-rendering="crispEdges"/>
</g>
</g>
<defs>
<filter id="filter0_d_17_73" x="14.2438" y="10.4188" width="17.5125" height="17.5125" filterUnits="userSpaceOnUse" color-interpolation-filters="sRGB">
<feFlood flood-opacity="0" result="BackgroundImageFix"/>
<feColorMatrix in="SourceAlpha" type="matrix" values="0 0 0 0 0 0 0 0 0 0 0 0 0 0 0 0 0 0 127 0" result="hardAlpha"/>
<feOffset dy="1.8"/>
<feGaussianBlur stdDeviation="1.8"/>
<feComposite in2="hardAlpha" operator="out"/>
<feColorMatrix type="matrix" values="0 0 0 0 0 0 0 0 0 0 0 0 0 0 0 0 0 0 0.25 0"/>
<feBlend mode="normal" in2="BackgroundImageFix" result="effect1_dropShadow_17_73"/>
<feBlend mode="normal" in="SourceGraphic" in2="effect1_dropShadow_17_73" result="shape"/>
</filter>
<filter id="filter1_d_17_73" x="10.4932" y="21.6688" width="25.0135" height="17.5125" filterUnits="userSpaceOnUse" color-interpolation-filters="sRGB">
<feFlood flood-opacity="0" result="BackgroundImageFix"/>
<feColorMatrix in="SourceAlpha" type="matrix" values="0 0 0 0 0 0 0 0 0 0 0 0 0 0 0 0 0 0 127 0" result="hardAlpha"/>
<feOffset dy="1.8"/>
<feGaussianBlur stdDeviation="1.8"/>
<feComposite in2="hardAlpha" operator="out"/>
<feColorMatrix type="matrix" values="0 0 0 0 0 0 0 0 0 0 0 0 0 0 0 0 0 0 0.25 0"/>
<feBlend mode="normal" in2="BackgroundImageFix" result="effect1_dropShadow_17_73"/>
<feBlend mode="normal" in="SourceGraphic" in2="effect1_dropShadow_17_73" result="shape"/>
</filter>
<filter id="filter2_d_17_73" x="1.11875" y="1.04375" width="43.7625" height="47.5125" filterUnits="userSpaceOnUse" color-interpolation-filters="sRGB">
<feFlood flood-opacity="0" result="BackgroundImageFix"/>
<feColorMatrix in="SourceAlpha" type="matrix" values="0 0 0 0 0 0 0 0 0 0 0 0 0 0 0 0 0 0 127 0" result="hardAlpha"/>
<feOffset dy="1.8"/>
<feGaussianBlur stdDeviation="1.8"/>
<feComposite in2="hardAlpha" operator="out"/>
<feColorMatrix type="matrix" values="0 0 0 0 0 0 0 0 0 0 0 0 0 0 0 0 0 0 0.25 0"/>
<feBlend mode="normal" in2="BackgroundImageFix" result="effect1_dropShadow_17_73"/>
<feBlend mode="normal" in="SourceGraphic" in2="effect1_dropShadow_17_73" result="shape"/>
</filter>
<clipPath id="clip0_17_73">
<rect width="45" height="45" fill="white" transform="translate(0.5 0.5)"/>
</clipPath>
</defs>
</svg>
