<svg width="38" height="38" viewBox="0 0 38 38" fill="none" xmlns="http://www.w3.org/2000/svg">
<path d="M11.0833 28.5V14.25" stroke="white" stroke-width="2.375" stroke-linecap="round"/>
<path d="M19 28.5V9.5" stroke="white" stroke-width="2.375" stroke-linecap="round"/>
<path d="M26.9167 28.5V20.5834" stroke="white" stroke-width="2.375" stroke-linecap="round"/>
<path d="M34.8334 19C34.8334 26.4638 34.8334 30.1959 32.5146 32.5145C30.1959 34.8333 26.4639 34.8333 19 34.8333C11.5361 34.8333 7.80416 34.8333 5.48543 32.5145C3.16669 30.1959 3.16669 26.4638 3.16669 19C3.16669 11.536 3.16669 7.8041 5.48543 5.48537C7.80416 3.16663 11.5361 3.16663 19 3.16663C26.4639 3.16663 30.1959 3.16663 32.5146 5.48537C34.0564 7.02712 34.5731 9.19366 34.7461 12.6666" stroke="white" stroke-width="2.375" stroke-linecap="round"/>
</svg>
