<svg width="39" height="39" viewBox="0 0 39 39" fill="none" xmlns="http://www.w3.org/2000/svg">
<path d="M5.80164 33.9383C7.65664 35.7933 10.6422 35.7933 16.6133 35.7933H22.9467C28.9177 35.7933 31.9034 35.7933 33.7583 33.9383C35.6133 32.0834 35.6133 29.0977 35.6133 23.1266C35.6133 21.2744 35.6133 19.7096 35.5579 18.3766M33.7583 12.3149C31.9034 10.46 28.9177 10.46 22.9467 10.46H16.6133C10.6422 10.46 7.65664 10.46 5.80164 12.3149C3.94666 14.1699 3.94666 17.1556 3.94666 23.1266C3.94666 24.9788 3.94666 26.5436 4.00201 27.8766" stroke="white" stroke-width="1.9" stroke-linecap="round"/>
<path d="M19.78 4.12646C22.7655 4.12646 24.2583 4.12646 25.1858 5.05397C26.1133 5.98145 26.1133 7.47423 26.1133 10.4598M14.3742 5.05397C13.4467 5.98145 13.4467 7.47423 13.4467 10.4598" stroke="white" stroke-width="1.9" stroke-linecap="round"/>
<path d="M19.78 28.4043C21.529 28.4043 22.9467 27.2228 22.9467 25.7655C22.9467 24.308 21.529 23.1265 19.78 23.1265C18.0311 23.1265 16.6133 21.9451 16.6133 20.4876C16.6133 19.0303 18.0311 17.8488 19.78 17.8488M19.78 28.4043C18.0311 28.4043 16.6133 27.2228 16.6133 25.7655M19.78 28.4043V29.4599M19.78 17.8488V16.7932M19.78 17.8488C21.529 17.8488 22.9467 19.0303 22.9467 20.4876" stroke="white" stroke-width="1.9" stroke-linecap="round"/>
</svg>
